<svg width="50" height="200" viewBox="0 0 61 305" fill="none" xmlns="http://www.w3.org/2000/svg">
<path d="M27.6652 288.357C10.7118 279.892 -1.85461e-06 262.571 -2.6829e-06 243.622L-3.55005e-06 223.784L-9.19347e-06 94.678L-1.05733e-05 63.111C-1.13704e-05 44.8754 9.92771 28.0861 25.9065 19.2989L61 -3.76908e-06L61 305L27.6652 288.357Z" fill="#0B4F6A"/>
<path d="M36 259.143L33.456 259.143L33.456 256.671L36 256.671L36 259.143ZM41.496 262.071C41.496 262.471 41.408 262.807 41.232 263.079C41.056 263.351 40.848 263.559 40.608 263.703C40.384 263.831 40.192 263.895 40.032 263.895C39.776 263.559 39.488 263.271 39.168 263.031C38.848 262.791 38.432 262.607 37.92 262.479C37.424 262.335 36.784 262.263 36 262.263L25.968 262.263C25.504 262.263 25.144 262.119 24.888 261.831C24.616 261.527 24.48 261.151 24.48 260.703C24.48 260.239 24.616 259.863 24.888 259.575C25.144 259.287 25.504 259.143 25.968 259.143L36 259.143C36.704 259.143 37.384 259.207 38.04 259.335C38.696 259.447 39.28 259.623 39.792 259.863C40.32 260.087 40.736 260.383 41.04 260.751C41.344 261.119 41.496 261.559 41.496 262.071ZM36 256.671L33.456 256.671C33.456 256.495 33.576 256.375 33.816 256.311C34.04 256.231 34.344 256.191 34.728 256.191C35.112 256.191 35.424 256.231 35.664 256.311C35.888 256.375 36 256.495 36 256.671ZM36 256.664L33.456 256.664L33.456 254.456C33.456 254.28 33.408 254.112 33.312 253.952C33.216 253.792 33.08 253.64 32.904 253.496C32.712 253.352 32.472 253.232 32.184 253.136C31.88 253.024 31.528 252.944 31.128 252.896C30.712 252.832 30.248 252.8 29.736 252.8C28.952 252.8 28.328 252.872 27.864 253.016C27.4 253.144 27.024 253.328 26.736 253.568C26.448 253.808 26.184 254.096 25.944 254.432C25.768 254.432 25.568 254.368 25.344 254.24C25.12 254.096 24.92 253.888 24.744 253.616C24.568 253.328 24.48 252.984 24.48 252.584C24.48 252.088 24.624 251.656 24.912 251.288C25.2 250.92 25.592 250.624 26.088 250.4C26.568 250.16 27.128 249.984 27.768 249.872C28.392 249.744 29.056 249.68 29.76 249.68C31.696 249.68 33.224 250.096 34.344 250.928C35.448 251.76 36 252.936 36 254.456L36 256.664ZM36 256.664C36 256.824 35.888 256.944 35.664 257.024C35.424 257.104 35.112 257.144 34.728 257.144C34.344 257.144 34.04 257.104 33.816 257.024C33.576 256.944 33.456 256.824 33.456 256.664L36 256.664ZM41.16 250.64C41.16 251.056 41.008 251.424 40.704 251.744C40.4 252.048 40.032 252.2 39.6 252.2C39.168 252.2 38.8 252.048 38.496 251.744C38.192 251.424 38.04 251.056 38.04 250.64C38.04 250.192 38.192 249.824 38.496 249.536C38.8 249.232 39.168 249.08 39.6 249.08C40.032 249.08 40.4 249.232 40.704 249.536C41.008 249.824 41.16 250.192 41.16 250.64ZM41.16 254.528C41.16 254.944 41.008 255.312 40.704 255.632C40.4 255.936 40.032 256.088 39.6 256.088C39.168 256.088 38.8 255.936 38.496 255.632C38.192 255.312 38.04 254.944 38.04 254.528C38.04 254.096 38.192 253.728 38.496 253.424C38.8 253.12 39.168 252.968 39.6 252.968C40.032 252.968 40.4 253.12 40.704 253.424C41.008 253.728 41.16 254.096 41.16 254.528ZM36 236.781L33.456 236.781L33.456 234.357L36 234.357L36 236.781ZM36 241.629C36 242.557 35.776 243.405 35.328 244.173C34.864 244.941 34.2 245.549 33.336 245.997C32.472 246.445 31.432 246.669 30.216 246.669C28.408 246.669 27 246.165 25.992 245.157C24.984 244.133 24.48 242.765 24.48 241.053C24.48 239.789 24.736 238.765 25.248 237.981C25.744 237.181 26.376 236.781 27.144 236.781L36 236.781L36 239.901L27.144 239.901C27.112 240.013 27.088 240.173 27.072 240.381C27.04 240.589 27.024 240.813 27.024 241.053C27.024 241.885 27.272 242.509 27.768 242.925C28.264 243.341 29.08 243.549 30.216 243.549C31.24 243.549 32.04 243.365 32.616 242.997C33.176 242.613 33.456 242.053 33.456 241.317L33.456 236.781L36 236.781L36 241.629ZM41.496 239.709C41.496 240.109 41.408 240.445 41.232 240.717C41.056 240.989 40.848 241.197 40.608 241.341C40.384 241.469 40.192 241.533 40.032 241.533C39.776 241.197 39.488 240.909 39.168 240.669C38.848 240.429 38.432 240.245 37.92 240.117C37.424 239.973 36.784 239.901 36 239.901L33.456 239.901L33.456 236.781L36 236.781C36.704 236.781 37.384 236.845 38.04 236.973C38.696 237.085 39.28 237.261 39.792 237.501C40.32 237.725 40.736 238.021 41.04 238.389C41.344 238.757 41.496 239.197 41.496 239.709ZM36 234.357L33.456 234.357C33.456 234.181 33.576 234.061 33.816 233.997C34.04 233.917 34.344 233.877 34.728 233.877C35.112 233.877 35.424 233.917 35.664 233.997C35.888 234.061 36 234.181 36 234.357ZM36 214.048C36 214.944 35.8 215.752 35.4 216.472C35 217.176 34.448 217.736 33.744 218.152C33.04 218.552 32.248 218.752 31.368 218.752L30.816 215.632L31.368 215.632C31.688 215.632 32.016 215.576 32.352 215.464C32.672 215.352 32.936 215.176 33.144 214.936C33.352 214.696 33.456 214.4 33.456 214.048L33.456 212.824L36 212.824L36 214.048ZM36 234.352L33.456 234.352L33.456 221.68C33.456 221.088 33.344 220.576 33.12 220.144C32.896 219.696 32.568 219.352 32.136 219.112C31.688 218.856 31.16 218.728 30.552 218.728C29.752 218.728 29.088 218.92 28.56 219.304C28.032 219.672 27.64 220.152 27.384 220.744C27.128 221.336 27 221.968 27 222.64C27 223.44 27.16 224.152 27.48 224.776C27.8 225.4 28.208 225.944 28.704 226.408C29.184 226.872 29.688 227.264 30.216 227.584C30.744 227.904 31.232 228.152 31.68 228.328C32.112 228.488 32.432 228.592 32.64 228.64L29.064 228.592C28.584 228.4 28.08 228.112 27.552 227.728C27.024 227.344 26.528 226.872 26.064 226.312C25.584 225.752 25.2 225.112 24.912 224.392C24.624 223.672 24.48 222.872 24.48 221.992C24.48 221.256 24.6 220.512 24.84 219.76C25.08 219.008 25.456 218.32 25.968 217.696C26.48 217.072 27.128 216.576 27.912 216.208C28.696 215.824 29.64 215.632 30.744 215.632C31.384 215.632 32.016 215.712 32.64 215.872C33.264 216.032 33.832 216.304 34.344 216.688C34.84 217.072 35.24 217.592 35.544 218.248C35.848 218.888 36 219.696 36 220.672L36 234.352ZM33.984 231.64L23.688 231.64C23.112 231.64 22.696 231.712 22.44 231.856C22.184 232 22.016 232.16 21.936 232.336C21.856 232.512 21.792 232.648 21.744 232.744C21.6 232.744 21.408 232.688 21.168 232.576C20.912 232.448 20.68 232.248 20.472 231.976C20.264 231.688 20.16 231.312 20.16 230.848C20.16 230.368 20.288 229.96 20.544 229.624C20.784 229.272 21.12 229 21.552 228.808C21.984 228.616 22.48 228.52 23.04 228.52L33.984 228.52L33.984 231.64ZM36 234.352C36 234.512 35.888 234.632 35.664 234.712C35.424 234.792 35.112 234.832 34.728 234.832C34.344 234.832 34.04 234.792 33.816 234.712C33.576 234.632 33.456 234.512 33.456 234.352L36 234.352ZM36 212.824L33.456 212.824C33.456 212.648 33.576 212.528 33.816 212.464C34.04 212.384 34.344 212.344 34.728 212.344C35.112 212.344 35.424 212.384 35.664 212.464C35.888 212.528 36 212.648 36 212.824ZM36 212.812L33.456 212.812L33.456 211.588C33.456 211.22 33.352 210.924 33.144 210.7C32.936 210.46 32.672 210.284 32.352 210.172C32.016 210.06 31.688 210.004 31.368 210.004L26.064 210.004C25.696 210.004 25.344 209.892 25.008 209.668C24.656 209.444 24.48 209.036 24.48 208.444C24.48 207.852 24.656 207.444 25.008 207.22C25.344 206.996 25.696 206.884 26.064 206.884L31.368 206.884C32.248 206.884 33.04 207.092 33.744 207.508C34.448 207.908 35 208.46 35.4 209.164C35.8 209.868 36 210.676 36 211.588L36 212.812ZM36 205.3C36 206.196 35.8 207.004 35.4 207.724C35 208.428 34.448 208.988 33.744 209.404C33.04 209.804 32.248 210.004 31.368 210.004L31.368 206.884C31.688 206.884 32.016 206.828 32.352 206.716C32.672 206.604 32.936 206.428 33.144 206.188C33.352 205.948 33.456 205.652 33.456 205.3L33.456 204.076L36 204.076L36 205.3ZM36 204.076L33.456 204.076C33.456 203.9 33.576 203.78 33.816 203.716C34.04 203.636 34.344 203.596 34.728 203.596C35.112 203.596 35.424 203.636 35.664 203.716C35.888 203.78 36 203.9 36 204.076ZM36 212.812C36 212.972 35.888 213.092 35.664 213.172C35.424 213.252 35.112 213.292 34.728 213.292C34.344 213.292 34.04 213.252 33.816 213.172C33.576 213.092 33.456 212.972 33.456 212.812L36 212.812ZM22.8 206.5C22.8 206.916 22.648 207.284 22.344 207.604C22.04 207.908 21.672 208.06 21.24 208.06C20.808 208.06 20.44 207.908 20.136 207.604C19.832 207.284 19.68 206.916 19.68 206.5C19.68 206.052 19.832 205.684 20.136 205.396C20.44 205.092 20.808 204.94 21.24 204.94C21.672 204.94 22.04 205.092 22.344 205.396C22.648 205.684 22.8 206.052 22.8 206.5ZM22.8 210.388C22.8 210.804 22.648 211.172 22.344 211.492C22.04 211.796 21.672 211.948 21.24 211.948C20.808 211.948 20.44 211.796 20.136 211.492C19.832 211.172 19.68 210.804 19.68 210.388C19.68 209.956 19.832 209.588 20.136 209.284C20.44 208.98 20.808 208.828 21.24 208.828C21.672 208.828 22.04 208.98 22.344 209.284C22.648 209.588 22.8 209.956 22.8 210.388ZM36 204.07L33.456 204.07L33.456 202.846C33.456 202.478 33.352 202.182 33.144 201.958C32.936 201.718 32.672 201.542 32.352 201.43C32.016 201.318 31.688 201.262 31.368 201.262L23.688 201.262C23.112 201.262 22.696 201.334 22.44 201.478C22.184 201.622 22.016 201.782 21.936 201.958C21.856 202.134 21.792 202.27 21.744 202.366C21.6 202.366 21.408 202.31 21.168 202.198C20.912 202.07 20.68 201.87 20.472 201.598C20.264 201.31 20.16 200.934 20.16 200.47C20.16 199.99 20.288 199.582 20.544 199.246C20.784 198.894 21.12 198.622 21.552 198.43C21.984 198.238 22.48 198.142 23.04 198.142L31.368 198.142C32.248 198.142 33.04 198.35 33.744 198.766C34.448 199.166 35 199.718 35.4 200.422C35.8 201.126 36 201.934 36 202.846L36 204.07ZM36 204.07C36 204.23 35.888 204.35 35.664 204.43C35.424 204.51 35.112 204.55 34.728 204.55C34.344 204.55 34.04 204.51 33.816 204.43C33.576 204.35 33.456 204.23 33.456 204.07L36 204.07ZM36 192.894C36 193.486 35.832 193.894 35.496 194.118C35.144 194.342 34.768 194.454 34.368 194.454L23.688 194.454C23.112 194.454 22.696 194.526 22.44 194.67C22.184 194.814 22.016 194.974 21.936 195.15C21.856 195.326 21.792 195.462 21.744 195.558C21.616 195.558 21.424 195.502 21.168 195.39C20.912 195.262 20.68 195.062 20.472 194.79C20.264 194.502 20.16 194.118 20.16 193.638C20.16 193.174 20.288 192.774 20.544 192.438C20.784 192.086 21.12 191.814 21.552 191.622C21.984 191.43 22.48 191.334 23.04 191.334L34.416 191.334C34.784 191.334 35.144 191.446 35.496 191.67C35.832 191.894 36 192.302 36 192.894ZM36 183.645C36 184.573 35.776 185.421 35.328 186.189C34.864 186.957 34.2 187.565 33.336 188.013C32.472 188.461 31.432 188.685 30.216 188.685C28.408 188.685 27 188.181 25.992 187.173C24.984 186.149 24.48 184.781 24.48 183.069C24.48 181.805 24.736 180.781 25.248 179.997C25.744 179.197 26.376 178.797 27.144 178.797L36 178.797L36 181.917L27.144 181.917C27.112 182.029 27.088 182.189 27.072 182.397C27.04 182.605 27.024 182.829 27.024 183.069C27.024 183.901 27.272 184.525 27.768 184.941C28.264 185.357 29.08 185.565 30.216 185.565C31.24 185.565 32.04 185.381 32.616 185.013C33.176 184.629 33.456 184.069 33.456 183.333L33.456 178.797L36 178.797L36 183.645ZM41.496 181.725C41.496 182.125 41.408 182.461 41.232 182.733C41.056 183.005 40.848 183.213 40.608 183.357C40.384 183.485 40.192 183.549 40.032 183.549C39.776 183.213 39.488 182.925 39.168 182.685C38.848 182.445 38.432 182.261 37.92 182.133C37.424 181.989 36.784 181.917 36 181.917L33.456 181.917L33.456 178.797L36 178.797C36.704 178.797 37.384 178.861 38.04 178.989C38.696 179.101 39.28 179.277 39.792 179.517C40.32 179.741 40.736 180.037 41.04 180.405C41.344 180.773 41.496 181.213 41.496 181.725ZM36 164.637C36 165.565 35.776 166.413 35.328 167.181C34.864 167.949 34.2 168.557 33.336 169.005C32.472 169.453 31.432 169.677 30.216 169.677C28.408 169.677 27 169.173 25.992 168.165C24.984 167.141 24.48 165.773 24.48 164.061C24.48 162.797 24.736 161.773 25.248 160.989C25.744 160.189 26.376 159.789 27.144 159.789L36 159.789L36 162.909L27.144 162.909C27.112 163.021 27.088 163.181 27.072 163.389C27.04 163.597 27.024 163.821 27.024 164.061C27.024 164.893 27.272 165.517 27.768 165.933C28.264 166.349 29.08 166.557 30.216 166.557C31.24 166.557 32.04 166.373 32.616 166.005C33.176 165.621 33.456 165.061 33.456 164.325L33.456 158.277L36 158.277L36 164.637ZM36 158.277L33.456 158.277C33.456 158.101 33.576 157.981 33.816 157.917C34.04 157.837 34.344 157.797 34.728 157.797C35.112 157.797 35.424 157.837 35.664 157.917C35.888 157.981 36 158.101 36 158.277ZM22.8 162.741C22.8 163.157 22.648 163.525 22.344 163.845C22.04 164.149 21.672 164.301 21.24 164.301C20.808 164.301 20.44 164.149 20.136 163.845C19.832 163.525 19.68 163.157 19.68 162.741C19.68 162.293 19.832 161.925 20.136 161.637C20.44 161.333 20.808 161.181 21.24 161.181C21.672 161.181 22.04 161.333 22.344 161.637C22.648 161.925 22.8 162.293 22.8 162.741ZM22.8 166.629C22.8 167.045 22.648 167.413 22.344 167.733C22.04 168.037 21.672 168.189 21.24 168.189C20.808 168.189 20.44 168.037 20.136 167.733C19.832 167.413 19.68 167.045 19.68 166.629C19.68 166.197 19.832 165.829 20.136 165.525C20.44 165.221 20.808 165.069 21.24 165.069C21.672 165.069 22.04 165.221 22.344 165.525C22.648 165.829 22.8 166.197 22.8 166.629ZM36 158.273L33.456 158.273L33.456 157.049C33.456 156.681 33.352 156.385 33.144 156.161C32.936 155.921 32.672 155.745 32.352 155.633C32.016 155.521 31.688 155.465 31.368 155.465L26.064 155.465C25.696 155.465 25.344 155.353 25.008 155.129C24.656 154.905 24.48 154.497 24.48 153.905C24.48 153.313 24.656 152.905 25.008 152.681C25.344 152.457 25.696 152.345 26.064 152.345L31.368 152.345C32.248 152.345 33.04 152.553 33.744 152.969C34.448 153.369 35 153.921 35.4 154.625C35.8 155.329 36 156.137 36 157.049L36 158.273ZM36 150.761C36 151.657 35.8 152.465 35.4 153.185C35 153.889 34.448 154.449 33.744 154.865C33.04 155.265 32.248 155.465 31.368 155.465L31.368 152.345C31.688 152.345 32.016 152.289 32.352 152.177C32.672 152.065 32.936 151.889 33.144 151.649C33.352 151.409 33.456 151.113 33.456 150.761L33.456 149.537L36 149.537L36 150.761ZM36 149.537L33.456 149.537C33.456 149.361 33.576 149.241 33.816 149.177C34.04 149.097 34.344 149.057 34.728 149.057C35.112 149.057 35.424 149.097 35.664 149.177C35.888 149.241 36 149.361 36 149.537ZM36 158.273C36 158.433 35.888 158.553 35.664 158.633C35.424 158.713 35.112 158.753 34.728 158.753C34.344 158.753 34.04 158.713 33.816 158.633C33.576 158.553 33.456 158.433 33.456 158.273L36 158.273ZM41.16 151.961C41.16 152.377 41.008 152.745 40.704 153.065C40.4 153.369 40.032 153.521 39.6 153.521C39.168 153.521 38.8 153.369 38.496 153.065C38.192 152.745 38.04 152.377 38.04 151.961C38.04 151.513 38.192 151.145 38.496 150.857C38.8 150.553 39.168 150.401 39.6 150.401C40.032 150.401 40.4 150.553 40.704 150.857C41.008 151.145 41.16 151.513 41.16 151.961ZM41.16 155.849C41.16 156.265 41.008 156.633 40.704 156.953C40.4 157.257 40.032 157.409 39.6 157.409C39.168 157.409 38.8 157.257 38.496 156.953C38.192 156.633 38.04 156.265 38.04 155.849C38.04 155.417 38.192 155.049 38.496 154.745C38.8 154.441 39.168 154.289 39.6 154.289C40.032 154.289 40.4 154.441 40.704 154.745C41.008 155.049 41.16 155.417 41.16 155.849ZM36 149.531L33.456 149.531L33.456 148.307C33.456 147.939 33.352 147.643 33.144 147.419C32.936 147.179 32.672 147.003 32.352 146.891C32.016 146.779 31.688 146.723 31.368 146.723L26.064 146.723C25.696 146.723 25.344 146.611 25.008 146.387C24.656 146.163 24.48 145.755 24.48 145.163C24.48 144.571 24.656 144.163 25.008 143.939C25.344 143.715 25.696 143.603 26.064 143.603L31.368 143.603C32.248 143.603 33.04 143.811 33.744 144.227C34.448 144.627 35 145.179 35.4 145.883C35.8 146.587 36 147.395 36 148.307L36 149.531ZM36 142.019C36 142.915 35.8 143.723 35.4 144.443C35 145.147 34.448 145.707 33.744 146.123C33.04 146.523 32.248 146.723 31.368 146.723L31.368 143.603C31.688 143.603 32.016 143.547 32.352 143.435C32.672 143.323 32.936 143.147 33.144 142.907C33.352 142.667 33.456 142.371 33.456 142.019L33.456 140.795L36 140.795L36 142.019ZM36 140.795L33.456 140.795C33.456 140.619 33.576 140.499 33.816 140.435C34.04 140.355 34.344 140.315 34.728 140.315C35.112 140.315 35.424 140.355 35.664 140.435C35.888 140.499 36 140.619 36 140.795ZM36 149.531C36 149.691 35.888 149.811 35.664 149.891C35.424 149.971 35.112 150.011 34.728 150.011C34.344 150.011 34.04 149.971 33.816 149.891C33.576 149.811 33.456 149.691 33.456 149.531L36 149.531ZM22.92 145.139C22.92 145.635 22.752 146.059 22.416 146.411C22.064 146.747 21.656 146.915 21.192 146.915C20.712 146.915 20.304 146.747 19.968 146.411C19.632 146.059 19.464 145.635 19.464 145.139C19.464 144.675 19.632 144.275 19.968 143.939C20.304 143.587 20.712 143.411 21.192 143.411C21.656 143.411 22.064 143.587 22.416 143.939C22.752 144.275 22.92 144.675 22.92 145.139ZM36 127.877C36 128.773 35.8 129.581 35.4 130.301C35 131.005 34.448 131.565 33.744 131.981C33.04 132.381 32.248 132.581 31.368 132.581L31.368 129.461C31.688 129.461 32.016 129.405 32.352 129.293C32.672 129.181 32.936 129.005 33.144 128.765C33.352 128.525 33.456 128.229 33.456 127.877L33.456 126.653L36 126.653L36 127.877ZM36 140.789L33.456 140.789L33.456 134.261C33.456 133.717 33.288 133.301 32.952 133.013C32.616 132.725 32.128 132.581 31.488 132.581L27.144 132.581C27.112 132.693 27.088 132.853 27.072 133.061C27.04 133.269 27.024 133.493 27.024 133.733C27.024 134.565 27.272 135.189 27.768 135.605C28.264 136.021 29.08 136.229 30.216 136.229C31.24 136.229 32.016 136.045 32.544 135.677C33.072 135.293 33.376 134.733 33.456 133.997L35.976 134.309C35.88 135.237 35.616 136.085 35.184 136.853C34.736 137.605 34.104 138.213 33.288 138.677C32.456 139.125 31.432 139.349 30.216 139.349C28.408 139.349 27 138.845 25.992 137.837C24.984 136.813 24.48 135.445 24.48 133.733C24.48 132.469 24.736 131.445 25.248 130.661C25.744 129.861 26.376 129.461 27.144 129.461L31.488 129.461C32.352 129.461 33.128 129.669 33.816 130.085C34.488 130.485 35.024 131.045 35.424 131.765C35.808 132.485 36 133.317 36 134.261L36 140.789ZM36 140.789C36 140.949 35.888 141.069 35.664 141.149C35.424 141.229 35.112 141.269 34.728 141.269C34.344 141.269 34.04 141.229 33.816 141.149C33.576 141.069 33.456 140.949 33.456 140.789L36 140.789ZM36 126.653L33.456 126.653C33.456 126.477 33.576 126.357 33.816 126.293C34.04 126.213 34.344 126.173 34.728 126.173C35.112 126.173 35.424 126.213 35.664 126.293C35.888 126.357 36 126.477 36 126.653ZM22.8 131.789C22.8 132.205 22.648 132.573 22.344 132.893C22.04 133.197 21.672 133.349 21.24 133.349C20.808 133.349 20.44 133.197 20.136 132.893C19.832 132.573 19.68 132.205 19.68 131.789C19.68 131.341 19.832 130.973 20.136 130.685C20.44 130.381 20.808 130.229 21.24 130.229C21.672 130.229 22.04 130.381 22.344 130.685C22.648 130.973 22.8 131.341 22.8 131.789ZM22.8 135.677C22.8 136.093 22.648 136.461 22.344 136.781C22.04 137.085 21.672 137.237 21.24 137.237C20.808 137.237 20.44 137.085 20.136 136.781C19.832 136.461 19.68 136.093 19.68 135.677C19.68 135.245 19.832 134.877 20.136 134.573C20.44 134.269 20.808 134.117 21.24 134.117C21.672 134.117 22.04 134.269 22.344 134.573C22.648 134.877 22.8 135.245 22.8 135.677ZM36 126.656L33.456 126.656L33.456 125.432C33.456 125.064 33.352 124.768 33.144 124.544C32.936 124.304 32.672 124.128 32.352 124.016C32.016 123.904 31.688 123.848 31.368 123.848L26.064 123.848C25.696 123.848 25.344 123.736 25.008 123.512C24.656 123.288 24.48 122.88 24.48 122.288C24.48 121.696 24.656 121.288 25.008 121.064C25.344 120.84 25.696 120.728 26.064 120.728L31.368 120.728C32.248 120.728 33.04 120.936 33.744 121.352C34.448 121.752 35 122.304 35.4 123.008C35.8 123.712 36 124.52 36 125.432L36 126.656ZM36 119.144C36 120.04 35.8 120.848 35.4 121.568C35 122.272 34.448 122.832 33.744 123.248C33.04 123.648 32.248 123.848 31.368 123.848L31.368 120.728C31.688 120.728 32.016 120.672 32.352 120.56C32.672 120.448 32.936 120.272 33.144 120.032C33.352 119.792 33.456 119.496 33.456 119.144L33.456 117.92L36 117.92L36 119.144ZM36 117.92L33.456 117.92C33.456 117.744 33.576 117.624 33.816 117.56C34.04 117.48 34.344 117.44 34.728 117.44C35.112 117.44 35.424 117.48 35.664 117.56C35.888 117.624 36 117.744 36 117.92ZM36 126.656C36 126.816 35.888 126.936 35.664 127.016C35.424 127.096 35.112 127.136 34.728 127.136C34.344 127.136 34.04 127.096 33.816 127.016C33.576 126.936 33.456 126.816 33.456 126.656L36 126.656ZM22.8 120.344C22.8 120.76 22.648 121.128 22.344 121.448C22.04 121.752 21.672 121.904 21.24 121.904C20.808 121.904 20.44 121.752 20.136 121.448C19.832 121.128 19.68 120.76 19.68 120.344C19.68 119.896 19.832 119.528 20.136 119.24C20.44 118.936 20.808 118.784 21.24 118.784C21.672 118.784 22.04 118.936 22.344 119.24C22.648 119.528 22.8 119.896 22.8 120.344ZM22.8 124.232C22.8 124.648 22.648 125.016 22.344 125.336C22.04 125.64 21.672 125.792 21.24 125.792C20.808 125.792 20.44 125.64 20.136 125.336C19.832 125.016 19.68 124.648 19.68 124.232C19.68 123.8 19.832 123.432 20.136 123.128C20.44 122.824 20.808 122.672 21.24 122.672C21.672 122.672 22.04 122.824 22.344 123.128C22.648 123.432 22.8 123.8 22.8 124.232ZM36 117.914L33.456 117.914L33.456 116.69C33.456 116.322 33.352 116.026 33.144 115.802C32.936 115.562 32.672 115.386 32.352 115.274C32.016 115.162 31.688 115.106 31.368 115.106L23.688 115.106C23.112 115.106 22.696 115.178 22.44 115.322C22.184 115.466 22.016 115.626 21.936 115.802C21.856 115.978 21.792 116.114 21.744 116.21C21.6 116.21 21.408 116.154 21.168 116.042C20.912 115.914 20.68 115.714 20.472 115.442C20.264 115.154 20.16 114.778 20.16 114.314C20.16 113.834 20.288 113.426 20.544 113.09C20.784 112.738 21.12 112.466 21.552 112.274C21.984 112.082 22.48 111.986 23.04 111.986L31.368 111.986C32.248 111.986 33.04 112.194 33.744 112.61C34.448 113.01 35 113.562 35.4 114.266C35.8 114.97 36 115.778 36 116.69L36 117.914ZM36 117.914C36 118.074 35.888 118.194 35.664 118.274C35.424 118.354 35.112 118.394 34.728 118.394C34.344 118.394 34.04 118.354 33.816 118.274C33.576 118.194 33.456 118.074 33.456 117.914L36 117.914ZM36 106.738C36 107.33 35.832 107.738 35.496 107.962C35.144 108.186 34.768 108.298 34.368 108.298L23.688 108.298C23.112 108.298 22.696 108.37 22.44 108.514C22.184 108.658 22.016 108.818 21.936 108.994C21.856 109.17 21.792 109.306 21.744 109.402C21.616 109.402 21.424 109.346 21.168 109.234C20.912 109.106 20.68 108.906 20.472 108.634C20.264 108.346 20.16 107.962 20.16 107.482C20.16 107.018 20.288 106.618 20.544 106.282C20.784 105.93 21.12 105.658 21.552 105.466C21.984 105.274 22.48 105.178 23.04 105.178L34.416 105.178C34.784 105.178 35.144 105.29 35.496 105.514C35.832 105.738 36 106.146 36 106.738ZM36 91.4887C36 92.4167 35.776 93.2647 35.328 94.0327C34.864 94.8007 34.2 95.4087 33.336 95.8567C32.472 96.3047 31.432 96.5287 30.216 96.5287C28.408 96.5287 27 96.0247 25.992 95.0167C24.984 93.9927 24.48 92.6247 24.48 90.9127C24.48 89.6487 24.736 88.6247 25.248 87.8407C25.744 87.0407 26.376 86.6407 27.144 86.6407L36 86.6407L36 89.7607L27.144 89.7607C27.112 89.8727 27.088 90.0327 27.072 90.2407C27.04 90.4487 27.024 90.6727 27.024 90.9127C27.024 91.7447 27.272 92.3687 27.768 92.7847C28.264 93.2007 29.08 93.4087 30.216 93.4087C31.24 93.4087 32.04 93.2247 32.616 92.8567C33.176 92.4727 33.456 91.9127 33.456 91.1767L33.456 85.1287L36 85.1287L36 91.4887ZM36 85.1287L33.456 85.1287C33.456 84.9527 33.576 84.8327 33.816 84.7687C34.04 84.6887 34.344 84.6487 34.728 84.6487C35.112 84.6487 35.424 84.6887 35.664 84.7687C35.888 84.8327 36 84.9527 36 85.1287ZM22.8 89.5927C22.8 90.0087 22.648 90.3767 22.344 90.6967C22.04 91.0007 21.672 91.1527 21.24 91.1527C20.808 91.1527 20.44 91.0007 20.136 90.6967C19.832 90.3767 19.68 90.0087 19.68 89.5927C19.68 89.1447 19.832 88.7767 20.136 88.4887C20.44 88.1847 20.808 88.0327 21.24 88.0327C21.672 88.0327 22.04 88.1847 22.344 88.4887C22.648 88.7767 22.8 89.1447 22.8 89.5927ZM22.8 93.4807C22.8 93.8967 22.648 94.2647 22.344 94.5847C22.04 94.8887 21.672 95.0407 21.24 95.0407C20.808 95.0407 20.44 94.8887 20.136 94.5847C19.832 94.2647 19.68 93.8967 19.68 93.4807C19.68 93.0487 19.832 92.6807 20.136 92.3767C20.44 92.0727 20.808 91.9207 21.24 91.9207C21.672 91.9207 22.04 92.0727 22.344 92.3767C22.648 92.6807 22.8 93.0487 22.8 93.4807ZM36 85.125L33.456 85.125L33.456 83.901C33.456 83.533 33.352 83.237 33.144 83.013C32.936 82.773 32.672 82.597 32.352 82.485C32.016 82.373 31.688 82.317 31.368 82.317L26.064 82.317C25.696 82.317 25.344 82.205 25.008 81.981C24.656 81.757 24.48 81.349 24.48 80.757C24.48 80.165 24.656 79.757 25.008 79.533C25.344 79.309 25.696 79.197 26.064 79.197L31.368 79.197C32.248 79.197 33.04 79.405 33.744 79.821C34.448 80.221 35 80.773 35.4 81.477C35.8 82.181 36 82.989 36 83.901L36 85.125ZM36 77.613C36 78.509 35.8 79.317 35.4 80.037C35 80.741 34.448 81.301 33.744 81.717C33.04 82.117 32.248 82.317 31.368 82.317L31.368 79.197C31.688 79.197 32.016 79.141 32.352 79.029C32.672 78.917 32.936 78.741 33.144 78.501C33.352 78.261 33.456 77.965 33.456 77.613L33.456 76.389L36 76.389L36 77.613ZM36 76.389L33.456 76.389C33.456 76.213 33.576 76.093 33.816 76.029C34.04 75.949 34.344 75.909 34.728 75.909C35.112 75.909 35.424 75.949 35.664 76.029C35.888 76.093 36 76.213 36 76.389ZM36 85.125C36 85.285 35.888 85.405 35.664 85.485C35.424 85.565 35.112 85.605 34.728 85.605C34.344 85.605 34.04 85.565 33.816 85.485C33.576 85.405 33.456 85.285 33.456 85.125L36 85.125ZM22.92 80.733C22.92 81.229 22.752 81.653 22.416 82.005C22.064 82.341 21.656 82.509 21.192 82.509C20.712 82.509 20.304 82.341 19.968 82.005C19.632 81.653 19.464 81.229 19.464 80.733C19.464 80.269 19.632 79.869 19.968 79.533C20.304 79.181 20.712 79.005 21.192 79.005C21.656 79.005 22.064 79.181 22.416 79.533C22.752 79.869 22.92 80.269 22.92 80.733ZM36 62.5348C36 63.4308 35.8 64.2388 35.4 64.9588C35 65.6628 34.448 66.2228 33.744 66.6388C33.04 67.0388 32.248 67.2388 31.368 67.2388L30.984 67.2388L30.984 64.1188L31.368 64.1188C31.688 64.1188 32.016 64.0628 32.352 63.9508C32.672 63.8388 32.936 63.6628 33.144 63.4228C33.352 63.1828 33.456 62.8868 33.456 62.5348L33.456 61.3108L36 61.3108L36 62.5348ZM36 76.3828L33.456 76.3828L33.456 68.8228C33.456 68.3108 33.272 67.9188 32.904 67.6468C32.536 67.3748 31.904 67.2388 31.008 67.2388C29.68 67.2388 28.688 67.5588 28.032 68.1988C27.36 68.8388 27.024 69.8068 27.024 71.1028C27.024 71.2948 27.024 71.5428 27.024 71.8468C27.024 72.1508 27.032 72.4548 27.048 72.7588C27.048 73.0628 27.048 73.3188 27.048 73.5268C27.048 74.0548 26.928 74.4868 26.688 74.8228C26.432 75.1588 26.104 75.4148 25.704 75.5908C25.304 75.7508 24.896 75.8308 24.48 75.8308C24.144 75.8308 23.912 75.7668 23.784 75.6388C23.64 75.4948 23.576 75.3588 23.592 75.2308C23.848 75.1508 24.072 74.9508 24.264 74.6308C24.44 74.3108 24.528 73.8308 24.528 73.1908C24.528 73.0308 24.528 72.8068 24.528 72.5188C24.512 72.2308 24.504 71.9508 24.504 71.6788C24.488 71.3908 24.48 71.1988 24.48 71.1028C24.48 69.8548 24.664 68.7908 25.032 67.9108C25.384 67.0308 25.872 66.3108 26.496 65.7508C27.12 65.1908 27.824 64.7828 28.608 64.5268C29.376 64.2548 30.176 64.1188 31.008 64.1188C32.208 64.1188 33.176 64.3508 33.912 64.8148C34.648 65.2788 35.184 65.8708 35.52 66.5908C35.84 67.3108 36 68.0548 36 68.8228L36 76.3828ZM36 76.3828C36 76.5428 35.888 76.6628 35.664 76.7428C35.424 76.8228 35.112 76.8628 34.728 76.8628C34.344 76.8628 34.04 76.8228 33.816 76.7428C33.576 76.6628 33.456 76.5428 33.456 76.3828L36 76.3828ZM36 61.3108L33.456 61.3108C33.456 61.1348 33.576 61.0148 33.816 60.9508C34.04 60.8708 34.344 60.8308 34.728 60.8308C35.112 60.8308 35.424 60.8708 35.664 60.9508C35.888 61.0148 36 61.1348 36 61.3108ZM41.376 70.6708C41.376 71.1668 41.2 71.5908 40.848 71.9428C40.512 72.2788 40.112 72.4468 39.648 72.4468C39.168 72.4468 38.76 72.2788 38.424 71.9428C38.088 71.5908 37.92 71.1668 37.92 70.6708C37.92 70.2068 38.088 69.8068 38.424 69.4708C38.76 69.1188 39.168 68.9428 39.648 68.9428C40.112 68.9428 40.512 69.1188 40.848 69.4708C41.2 69.8068 41.376 70.2068 41.376 70.6708ZM36 61.3125L33.456 61.3125L33.456 60.0885C33.456 59.7205 33.352 59.4245 33.144 59.2005C32.936 58.9605 32.672 58.7845 32.352 58.6725C32.016 58.5605 31.688 58.5045 31.368 58.5045L23.688 58.5045C23.112 58.5045 22.696 58.5765 22.44 58.7205C22.184 58.8645 22.016 59.0245 21.936 59.2005C21.856 59.3765 21.792 59.5125 21.744 59.6085C21.6 59.6085 21.408 59.5525 21.168 59.4405C20.912 59.3125 20.68 59.1125 20.472 58.8405C20.264 58.5525 20.16 58.1765 20.16 57.7125C20.16 57.2325 20.288 56.8245 20.544 56.4885C20.784 56.1365 21.12 55.8645 21.552 55.6725C21.984 55.4805 22.48 55.3845 23.04 55.3845L31.368 55.3845C32.248 55.3845 33.04 55.5925 33.744 56.0085C34.448 56.4085 35 56.9605 35.4 57.6645C35.8 58.3685 36 59.1765 36 60.0885L36 61.3125ZM36 61.3125C36 61.4725 35.888 61.5925 35.664 61.6725C35.424 61.7525 35.112 61.7925 34.728 61.7925C34.344 61.7925 34.04 61.7525 33.816 61.6725C33.576 61.5925 33.456 61.4725 33.456 61.3125L36 61.3125Z" fill="white"/>
</svg>
